<svg id="Layer_1" data-name="Layer 1" xmlns="http://www.w3.org/2000/svg" viewBox="0 0 557.77 108.57"><defs><style>.cls-1{fill:#284797;}.cls-2{fill:#05aba5;}.cls-3{fill:#c61c1a;}.cls-4{fill:#fff;}</style></defs><path class="cls-1" d="M125.52,258.79v6h.16a15.93,15.93,0,0,1,20.08-5.38,8.86,8.86,0,0,1,4.35,5.38,14.19,14.19,0,0,1,5.41-5.14,15.36,15.36,0,0,1,7.4-1.82,21.75,21.75,0,0,1,5.57.67,11.62,11.62,0,0,1,4.27,2.1,9.48,9.48,0,0,1,2.77,3.67,13.46,13.46,0,0,1,1,5.42v30h-6.72v-26.8a19.18,19.18,0,0,0-.31-3.56,7.29,7.29,0,0,0-1.19-2.88,5.93,5.93,0,0,0-2.41-1.94,9.66,9.66,0,0,0-4-.71,10.62,10.62,0,0,0-7.83,2.84,10.26,10.26,0,0,0-2.84,7.6v25.45H144.5v-26.8a17.21,17.21,0,0,0-.36-3.64,7.81,7.81,0,0,0-1.23-2.88,5.68,5.68,0,0,0-2.33-1.9,9,9,0,0,0-3.75-.67,10,10,0,0,0-5,1.19,11.35,11.35,0,0,0-5.3,6.28,9.6,9.6,0,0,0-.59,3v25.45H119.2V258.79Z" transform="translate(-119.2 -243.21)"/><path class="cls-1" d="M215.9,300.53a5.8,5.8,0,0,1-4.15-1.46q-1.55-1.47-1.54-4.78a16.11,16.11,0,0,1-6.44,4.78,21.4,21.4,0,0,1-8,1.46,21.91,21.91,0,0,1-5.22-.59,11.9,11.9,0,0,1-4.31-2,9.69,9.69,0,0,1-2.92-3.56,11.89,11.89,0,0,1-1.07-5.26,12.05,12.05,0,0,1,1.19-5.7,10.35,10.35,0,0,1,3.12-3.59,14.5,14.5,0,0,1,4.43-2.1c1.66-.47,3.36-.87,5.1-1.18s3.6-.65,5.25-.83a30,30,0,0,0,4.39-.79,7.52,7.52,0,0,0,3-1.5,3.68,3.68,0,0,0,1.11-2.89,6.75,6.75,0,0,0-.83-3.56,5.67,5.67,0,0,0-2.14-2.05A8.65,8.65,0,0,0,204,264a22,22,0,0,0-3.21-.24,14.19,14.19,0,0,0-7.11,1.62q-2.85,1.62-3.09,6.13h-6.72a14.41,14.41,0,0,1,1.59-6.4,11.93,11.93,0,0,1,3.79-4.24,16,16,0,0,1,5.45-2.33,29.08,29.08,0,0,1,6.49-.71,38.77,38.77,0,0,1,5.49.39,14.59,14.59,0,0,1,4.94,1.62,9.5,9.5,0,0,1,3.56,3.45,11,11,0,0,1,1.34,5.77v21a16,16,0,0,0,.28,3.48c.19.73.81,1.1,1.86,1.1a6.7,6.7,0,0,0,2.05-.39v5.21a9.41,9.41,0,0,1-4.82,1m-9.41-20.59c-1.37.29-2.8.52-4.3.71s-3,.4-4.55.63a16.65,16.65,0,0,0-4.11,1.15,7.53,7.53,0,0,0-3,2.25,6.35,6.35,0,0,0-1.14,4,5.44,5.44,0,0,0,.67,2.81,5.65,5.65,0,0,0,1.74,1.86,7.31,7.31,0,0,0,2.53,1,14,14,0,0,0,3,.31,15.79,15.79,0,0,0,5.69-.91,11.83,11.83,0,0,0,3.88-2.29,9.06,9.06,0,0,0,2.21-3,7.56,7.56,0,0,0,.71-3.05v-6.88a8.24,8.24,0,0,1-3.32,1.39" transform="translate(-119.2 -243.21)"/><path class="cls-1" d="M231.56,258.79v6.48h.15q4.2-7.42,13.28-7.43a17.77,17.77,0,0,1,6.73,1.11,11,11,0,0,1,4.34,3.08,11.5,11.5,0,0,1,2.34,4.7,25.76,25.76,0,0,1,.67,6v26.88h-6.72V272a8.15,8.15,0,0,0-2.21-6,8.26,8.26,0,0,0-6.09-2.21,13.74,13.74,0,0,0-5.34,1,10,10,0,0,0-3.75,2.69,11.49,11.49,0,0,0-2.26,4.07,16.54,16.54,0,0,0-.75,5.1v23.08h-6.72V258.79Z" transform="translate(-119.2 -243.21)"/><path class="cls-1" d="M267.2,243.21h6.71v8.22H267.2Zm6.71,56.45H267.2V258.79h6.71Z" transform="translate(-119.2 -243.21)"/><path class="cls-1" d="M288.91,258.79v5.53h.15a10.12,10.12,0,0,1,5.22-4.94,19.43,19.43,0,0,1,7.83-1.54,18.41,18.41,0,0,1,8.26,1.74,16.88,16.88,0,0,1,5.85,4.7,20.74,20.74,0,0,1,3.52,6.84,28,28,0,0,1,1.18,8.22,28.9,28.9,0,0,1-1.14,8.22,19.41,19.41,0,0,1-3.48,6.77,16.27,16.27,0,0,1-5.85,4.54,18.94,18.94,0,0,1-8.18,1.66,20.16,20.16,0,0,1-3.36-.31,19.61,19.61,0,0,1-3.68-1,14.51,14.51,0,0,1-3.44-1.94,10.79,10.79,0,0,1-2.73-3h-.15v21h-6.73V258.79Zm24.15,14.51a15.09,15.09,0,0,0-2.3-4.87,11.11,11.11,0,0,0-3.95-3.39,11.92,11.92,0,0,0-5.65-1.27,11.16,11.16,0,0,0-9.65,4.86,15,15,0,0,0-2.17,4.94,24,24,0,0,0,0,11.43,14.42,14.42,0,0,0,2.25,4.94,11.54,11.54,0,0,0,4,3.44,12.46,12.46,0,0,0,5.93,1.3,11.59,11.59,0,0,0,5.81-1.34,10.85,10.85,0,0,0,3.75-3.56,15.56,15.56,0,0,0,2.06-5.06,27,27,0,0,0,.63-5.85,20.9,20.9,0,0,0-.75-5.57" transform="translate(-119.2 -243.21)"/><path class="cls-1" d="M358.06,300.53a5.79,5.79,0,0,1-4.15-1.46q-1.55-1.47-1.54-4.78a16.21,16.21,0,0,1-6.45,4.78,21.39,21.39,0,0,1-7.94,1.46,21.85,21.85,0,0,1-5.22-.59,11.82,11.82,0,0,1-4.31-2,9.69,9.69,0,0,1-2.92-3.56,11.89,11.89,0,0,1-1.07-5.26,12.06,12.06,0,0,1,1.18-5.7,10.38,10.38,0,0,1,3.13-3.59,14.45,14.45,0,0,1,4.42-2.1c1.66-.47,3.36-.87,5.1-1.18s3.6-.65,5.26-.83a30.54,30.54,0,0,0,4.39-.79,7.47,7.47,0,0,0,3-1.5,3.68,3.68,0,0,0,1.11-2.89,6.75,6.75,0,0,0-.83-3.56,5.58,5.58,0,0,0-2.13-2.05,8.63,8.63,0,0,0-2.93-.95,21.85,21.85,0,0,0-3.2-.24,14.23,14.23,0,0,0-7.12,1.62q-2.83,1.62-3.08,6.13H326a14.41,14.41,0,0,1,1.58-6.4,12,12,0,0,1,3.8-4.24,16,16,0,0,1,5.45-2.33,29,29,0,0,1,6.48-.71,38.81,38.81,0,0,1,5.5.39,14.66,14.66,0,0,1,4.94,1.62,9.57,9.57,0,0,1,3.56,3.45,11,11,0,0,1,1.34,5.77v21a15.38,15.38,0,0,0,.28,3.48c.18.73.8,1.1,1.86,1.1a6.7,6.7,0,0,0,2.05-.39v5.21a9.43,9.43,0,0,1-4.82,1m-9.41-20.59c-1.37.29-2.81.52-4.31.71s-3,.4-4.54.63a16.65,16.65,0,0,0-4.11,1.15,7.39,7.39,0,0,0-3,2.25,6.29,6.29,0,0,0-1.15,4,5.54,5.54,0,0,0,.67,2.81,5.65,5.65,0,0,0,1.74,1.86,7.48,7.48,0,0,0,2.53,1,14.13,14.13,0,0,0,3,.31,15.83,15.83,0,0,0,5.69-.91,12,12,0,0,0,3.88-2.29,9.06,9.06,0,0,0,2.21-3,7.73,7.73,0,0,0,.71-3.05v-6.88a8.24,8.24,0,0,1-3.32,1.39" transform="translate(-119.2 -243.21)"/><rect class="cls-1" x="248.5" width="6.72" height="56.45"/><path class="cls-2" d="M389.29,243.22V264.8h.16a8.93,8.93,0,0,1,2.22-3.2,12.65,12.65,0,0,1,3.19-2.14,17.45,17.45,0,0,1,3.72-1.23,19,19,0,0,1,3.76-.39,17.68,17.68,0,0,1,6.72,1.11,11.08,11.08,0,0,1,4.35,3.08,11.61,11.61,0,0,1,2.33,4.7,25.24,25.24,0,0,1,.67,6v26.88h-6.72V272a8.15,8.15,0,0,0-2.21-6,8.26,8.26,0,0,0-6.09-2.21,13.65,13.65,0,0,0-5.33,1,9.92,9.92,0,0,0-3.76,2.69,11.72,11.72,0,0,0-2.26,4.07,16.54,16.54,0,0,0-.75,5.1v23.08h-6.72V243.22Z" transform="translate(-119.2 -243.21)"/><path class="cls-2" d="M423.42,270.85a18.93,18.93,0,0,1,3.79-6.8,17.87,17.87,0,0,1,6.25-4.55,22.87,22.87,0,0,1,17.11,0,18,18,0,0,1,6.21,4.55,19.1,19.1,0,0,1,3.8,6.8,27.3,27.3,0,0,1,1.26,8.42,27,27,0,0,1-1.26,8.38,19.27,19.27,0,0,1-3.8,6.76,17.62,17.62,0,0,1-6.21,4.5,23.4,23.4,0,0,1-17.11,0,17.5,17.5,0,0,1-6.25-4.5,19.09,19.09,0,0,1-3.79-6.76,26.66,26.66,0,0,1-1.27-8.38,27,27,0,0,1,1.27-8.42m6.84,15a13.67,13.67,0,0,0,2.72,4.82,11.76,11.76,0,0,0,4.08,3,12.36,12.36,0,0,0,9.88,0,11.82,11.82,0,0,0,4.07-3,13.84,13.84,0,0,0,2.73-4.82,22.75,22.75,0,0,0,0-13.21A14.31,14.31,0,0,0,451,267.8a11.55,11.55,0,0,0-4.07-3,12.36,12.36,0,0,0-9.88,0,11.5,11.5,0,0,0-4.08,3,14.13,14.13,0,0,0-2.72,4.86,22.53,22.53,0,0,0,0,13.21" transform="translate(-119.2 -243.21)"/><path class="cls-2" d="M472.94,290.53a7,7,0,0,0,2.49,2.45,11.35,11.35,0,0,0,3.47,1.31,20.32,20.32,0,0,0,4,.39,24.36,24.36,0,0,0,3.32-.24,11.85,11.85,0,0,0,3.2-.86,5.92,5.92,0,0,0,2.41-1.86,4.91,4.91,0,0,0,.95-3.12,4.5,4.5,0,0,0-2-4,16.81,16.81,0,0,0-4.95-2.17c-2-.55-4.12-1.06-6.44-1.5a33.38,33.38,0,0,1-6.44-1.9,13.31,13.31,0,0,1-4.94-3.44,8.94,8.94,0,0,1-2-6.17,9.79,9.79,0,0,1,1.38-5.29,11.33,11.33,0,0,1,3.56-3.6,16.54,16.54,0,0,1,4.9-2.06,23,23,0,0,1,5.42-.67,32.74,32.74,0,0,1,6.41.59,14.84,14.84,0,0,1,5.17,2.06,10.64,10.64,0,0,1,3.6,3.95,15,15,0,0,1,1.58,6.21h-6.72a6.84,6.84,0,0,0-1-3.28,6.72,6.72,0,0,0-2.21-2.1,10.12,10.12,0,0,0-3-1.14,15,15,0,0,0-3.28-.36,19.75,19.75,0,0,0-3,.24,10.12,10.12,0,0,0-2.81.83,5.61,5.61,0,0,0-2,1.58,4,4,0,0,0-.79,2.57,3.78,3.78,0,0,0,1.22,2.88,9.75,9.75,0,0,0,3.12,1.9,28.49,28.49,0,0,0,4.27,1.27c1.59.34,3.17.7,4.75,1.06a50.62,50.62,0,0,1,4.94,1.35,16,16,0,0,1,4.27,2.09,10.24,10.24,0,0,1,3,3.28,9.62,9.62,0,0,1,1.15,4.91,11.35,11.35,0,0,1-1.54,6.16,12,12,0,0,1-4,4,16.81,16.81,0,0,1-5.62,2.09,32.77,32.77,0,0,1-6.2.59,28.5,28.5,0,0,1-6.49-.71,15.84,15.84,0,0,1-5.45-2.33,11.89,11.89,0,0,1-3.8-4.27,15,15,0,0,1-1.58-6.44h6.72a7.57,7.57,0,0,0,1,3.75" transform="translate(-119.2 -243.21)"/><path class="cls-2" d="M512.29,258.79v5.53h.16a10,10,0,0,1,5.22-4.94,19.42,19.42,0,0,1,7.82-1.54,18.38,18.38,0,0,1,8.26,1.74,16.78,16.78,0,0,1,5.85,4.7,20.74,20.74,0,0,1,3.52,6.84,28,28,0,0,1,1.19,8.22,28.9,28.9,0,0,1-1.15,8.22,19.24,19.24,0,0,1-3.48,6.77,16.27,16.27,0,0,1-5.85,4.54,18.9,18.9,0,0,1-8.18,1.66,20.26,20.26,0,0,1-3.36-.31,19.3,19.3,0,0,1-3.67-1,14.38,14.38,0,0,1-3.45-1.94,10.61,10.61,0,0,1-2.72-3h-.16v21h-6.72V258.79Zm24.15,14.51a15.07,15.07,0,0,0-2.29-4.87,11.23,11.23,0,0,0-4-3.39,11.89,11.89,0,0,0-5.65-1.27,11.12,11.12,0,0,0-9.64,4.86,14.83,14.83,0,0,0-2.18,4.94,24.2,24.2,0,0,0-.67,5.62,23.77,23.77,0,0,0,.71,5.81,14.43,14.43,0,0,0,2.26,4.94,11.41,11.41,0,0,0,4,3.44,12.46,12.46,0,0,0,5.93,1.3,11.56,11.56,0,0,0,5.81-1.34,10.76,10.76,0,0,0,3.75-3.56,15.35,15.35,0,0,0,2.06-5.06,27,27,0,0,0,.63-5.85,20.9,20.9,0,0,0-.75-5.57" transform="translate(-119.2 -243.21)"/><path class="cls-2" d="M550.51,243.21h6.71v8.22h-6.71Zm6.71,56.45h-6.71V258.79h6.71Z" transform="translate(-119.2 -243.21)"/><path class="cls-2" d="M583,258.79v5.93h-8.15V290.1A7.31,7.31,0,0,0,575,292a1.92,1.92,0,0,0,.75,1.11,3.15,3.15,0,0,0,1.54.51,22.3,22.3,0,0,0,2.58.12H583v5.93h-5.14a24,24,0,0,1-4.47-.35,6.47,6.47,0,0,1-3-1.31,5.46,5.46,0,0,1-1.7-2.69,15.37,15.37,0,0,1-.56-4.58v-26h-7v-5.93h7V246.53h6.72v12.26Z" transform="translate(-119.2 -243.21)"/><path class="cls-2" d="M619.92,300.53a5.79,5.79,0,0,1-4.15-1.46q-1.54-1.47-1.54-4.78a16.21,16.21,0,0,1-6.45,4.78,21.39,21.39,0,0,1-7.94,1.46,21.85,21.85,0,0,1-5.22-.59,11.82,11.82,0,0,1-4.31-2,9.6,9.6,0,0,1-2.92-3.56,11.75,11.75,0,0,1-1.07-5.26,12.06,12.06,0,0,1,1.18-5.7,10.38,10.38,0,0,1,3.13-3.59,14.45,14.45,0,0,1,4.42-2.1c1.66-.47,3.36-.87,5.1-1.18s3.6-.65,5.26-.83a30.28,30.28,0,0,0,4.39-.79,7.54,7.54,0,0,0,3-1.5,3.68,3.68,0,0,0,1.11-2.89,6.75,6.75,0,0,0-.83-3.56,5.6,5.6,0,0,0-2.14-2.05A8.58,8.58,0,0,0,608,264a21.85,21.85,0,0,0-3.2-.24,14.23,14.23,0,0,0-7.12,1.62c-1.9,1.08-2.92,3.12-3.08,6.13H587.9a14.41,14.41,0,0,1,1.58-6.4,12,12,0,0,1,3.8-4.24,16,16,0,0,1,5.45-2.33,29.05,29.05,0,0,1,6.48-.71,38.81,38.81,0,0,1,5.5.39,14.66,14.66,0,0,1,4.94,1.62,9.57,9.57,0,0,1,3.56,3.45,11,11,0,0,1,1.34,5.77v21a15.38,15.38,0,0,0,.28,3.48c.18.73.8,1.1,1.85,1.1a6.7,6.7,0,0,0,2.06-.39v5.21a9.46,9.46,0,0,1-4.82,1m-9.41-20.59c-1.37.29-2.81.52-4.31.71s-3,.4-4.55.63a16.65,16.65,0,0,0-4.11,1.15,7.42,7.42,0,0,0-3,2.25,6.29,6.29,0,0,0-1.15,4,5.54,5.54,0,0,0,.67,2.81,5.65,5.65,0,0,0,1.74,1.86,7.48,7.48,0,0,0,2.53,1,14.13,14.13,0,0,0,3,.31,15.83,15.83,0,0,0,5.69-.91,12,12,0,0,0,3.88-2.29,9.2,9.2,0,0,0,2.21-3,7.73,7.73,0,0,0,.71-3.05v-6.88a8.24,8.24,0,0,1-3.32,1.39" transform="translate(-119.2 -243.21)"/><rect class="cls-2" x="510.36" width="6.72" height="56.45"/><path class="cls-2" d="M650,290.53A7,7,0,0,0,652.5,293a11.22,11.22,0,0,0,3.48,1.31,20.15,20.15,0,0,0,4,.39,24.36,24.36,0,0,0,3.32-.24,11.85,11.85,0,0,0,3.2-.86,5.92,5.92,0,0,0,2.41-1.86,5,5,0,0,0,1-3.12,4.49,4.49,0,0,0-2-4,16.75,16.75,0,0,0-4.94-2.17c-2-.55-4.12-1.06-6.44-1.5a33.17,33.17,0,0,1-6.44-1.9,13.23,13.23,0,0,1-4.94-3.44,8.94,8.94,0,0,1-2-6.17,9.79,9.79,0,0,1,1.38-5.29,11.23,11.23,0,0,1,3.56-3.6,16.43,16.43,0,0,1,4.9-2.06,23,23,0,0,1,5.42-.67,32.63,32.63,0,0,1,6.4.59,14.81,14.81,0,0,1,5.18,2.06,10.73,10.73,0,0,1,3.6,3.95,15.14,15.14,0,0,1,1.58,6.21h-6.72a6.47,6.47,0,0,0-3.24-5.38,10.12,10.12,0,0,0-3-1.14,15.05,15.05,0,0,0-3.28-.36,19.66,19.66,0,0,0-3,.24,10.12,10.12,0,0,0-2.81.83,5.53,5.53,0,0,0-2.05,1.58,4,4,0,0,0-.8,2.57,3.76,3.76,0,0,0,1.23,2.88,9.75,9.75,0,0,0,3.12,1.9,28.49,28.49,0,0,0,4.27,1.27c1.58.34,3.16.7,4.75,1.06a50.62,50.62,0,0,1,4.94,1.35,15.81,15.81,0,0,1,4.26,2.09,10.27,10.27,0,0,1,3,3.28,9.62,9.62,0,0,1,1.15,4.91,11.35,11.35,0,0,1-1.55,6.16,11.93,11.93,0,0,1-4,4,16.76,16.76,0,0,1-5.61,2.09,32.8,32.8,0,0,1-6.21.59,28.48,28.48,0,0,1-6.48-.71,15.89,15.89,0,0,1-5.46-2.33,11.87,11.87,0,0,1-3.79-4.27,14.84,14.84,0,0,1-1.58-6.44H649a7.46,7.46,0,0,0,1,3.75" transform="translate(-119.2 -243.21)"/><polygon class="cls-1" points="386.45 85.02 389.25 85.02 389.25 103.67 400.37 103.67 400.37 106.03 386.45 106.03 386.45 85.02"/><rect class="cls-1" x="402.92" y="85.02" width="2.79" height="21.01"/><polygon class="cls-1" points="410.42 85.02 424.21 85.02 424.21 87.37 413.2 87.37 413.2 94.05 422.86 94.05 422.86 96.41 413.2 96.41 413.2 106.03 410.42 106.03 410.42 85.02"/><polygon class="cls-1" points="427.3 85.02 441.79 85.02 441.79 87.37 430.09 87.37 430.09 94.05 441 94.05 441 96.41 430.09 96.41 430.09 103.67 441.88 103.67 441.88 106.03 427.3 106.03 427.3 85.02"/><path class="cls-1" d="M564.6,328.23h3.27v3.27c0,2.32-1,4.33-3.23,4.33v-1.47c1.32,0,1.7-1.5,1.7-2.86H564.6Z" transform="translate(-119.2 -243.21)"/><path class="cls-1" d="M584.78,334.39c-.33-3-2.33-4.3-5.21-4.3-2.35,0-4.71.86-4.71,3.59s3.36,3,6.75,3.74,6.7,1.94,6.7,6.06c0,4.47-4.38,6.26-8.21,6.26-4.7,0-8.68-2.3-8.68-7.42h2.65c0,3.53,2.95,5.07,6.12,5.07,2.53,0,5.33-.79,5.33-3.82s-3.36-3.39-6.71-4.13-6.74-1.7-6.74-5.56c0-4.26,3.8-6.14,7.62-6.14,4.3,0,7.56,2,7.73,6.65Z" transform="translate(-119.2 -243.21)"/><path class="cls-1" d="M608.74,327.74c6.68,0,10.06,5.29,10.06,11s-3.38,11-10.06,11-10.06-5.3-10.06-11,3.38-11,10.06-11m0,19.65c5.13,0,7.27-4.42,7.27-8.65s-2.14-8.65-7.27-8.65-7.26,4.42-7.26,8.65,2.14,8.65,7.26,8.65" transform="translate(-119.2 -243.21)"/><polygon class="cls-1" points="502.98 85.02 505.95 85.02 517.01 102.05 517.08 102.05 517.08 85.02 519.72 85.02 519.72 106.03 516.66 106.03 505.69 89.17 505.63 89.17 505.63 106.03 502.98 106.03 502.98 85.02"/><rect class="cls-3" x="530" y="82.48" width="26.09" height="26.09"/><path class="cls-4" d="M660.32,329.36a1.67,1.67,0,1,0,0,3.33,1.67,1.67,0,0,0,0-3.33" transform="translate(-119.2 -243.21)"/><path class="cls-4" d="M664.23,329.36a1.67,1.67,0,1,0,1.66,1.67,1.68,1.68,0,0,0-1.66-1.67" transform="translate(-119.2 -243.21)"/><path class="cls-4" d="M660.32,333.22a1.67,1.67,0,1,0,0,3.33,1.67,1.67,0,0,0,0-3.33" transform="translate(-119.2 -243.21)"/><path class="cls-4" d="M664.23,333.22a1.67,1.67,0,1,0,1.66,1.66,1.67,1.67,0,0,0-1.66-1.66" transform="translate(-119.2 -243.21)"/><path class="cls-4" d="M660.32,337.07a1.67,1.67,0,1,0,0,3.33,1.64,1.64,0,0,0,1.65-1.66,1.66,1.66,0,0,0-1.65-1.67" transform="translate(-119.2 -243.21)"/><path class="cls-4" d="M656.46,337.07a1.67,1.67,0,1,0,1.66,1.67,1.67,1.67,0,0,0-1.66-1.67" transform="translate(-119.2 -243.21)"/><path class="cls-4" d="M652.6,337.07a1.67,1.67,0,1,0,1.68,1.67,1.69,1.69,0,0,0-1.68-1.67" transform="translate(-119.2 -243.21)"/><path class="cls-4" d="M671.88,337.07a1.67,1.67,0,1,0,1.66,1.67,1.67,1.67,0,0,0-1.66-1.67" transform="translate(-119.2 -243.21)"/><path class="cls-4" d="M668,337.07a1.67,1.67,0,1,0,1.66,1.67,1.68,1.68,0,0,0-1.66-1.67" transform="translate(-119.2 -243.21)"/><path class="cls-4" d="M664.23,337.07a1.67,1.67,0,1,0,1.66,1.67,1.68,1.68,0,0,0-1.66-1.67" transform="translate(-119.2 -243.21)"/><path class="cls-4" d="M660.32,340.93a1.67,1.67,0,1,0,1.65,1.66,1.67,1.67,0,0,0-1.65-1.66" transform="translate(-119.2 -243.21)"/><path class="cls-4" d="M664.23,340.93a1.67,1.67,0,1,0,1.66,1.66,1.67,1.67,0,0,0-1.66-1.66" transform="translate(-119.2 -243.21)"/><path class="cls-4" d="M660.32,344.79a1.67,1.67,0,1,0,0,3.33,1.67,1.67,0,0,0,0-3.33" transform="translate(-119.2 -243.21)"/><path class="cls-4" d="M664.23,344.79a1.67,1.67,0,1,0,1.66,1.66,1.67,1.67,0,0,0-1.66-1.66" transform="translate(-119.2 -243.21)"/></svg>